<svg height="512pt" viewBox="-11 0 512 512" width="512pt" xmlns="http://www.w3.org/2000/svg"><path d="m350.148438 512c0-12.671875-1.726563-25.351562-5.226563-37.53125-7.335937-25.507812-21.707031-50.359375-43.675781-65.902344h-113.21875c-21.964844 15.539063-36.34375 40.394532-43.675782 65.902344-3.503906 12.179688-5.230468 24.859375-5.230468 37.53125zm0 0" fill="#82dbd4"/><path d="m170.03125 512c0-12.671875 1.722656-25.351562 5.226562-37.53125 7.332032-25.503906 21.710938-50.363281 43.675782-65.898438h-30.90625c-5.492188 3.882813-10.507813 8.351563-15.058594 13.261719-1.136719 1.230469-2.246094 2.484375-3.328125 3.769531-11.875 14.101563-20.246094 31.332032-25.289063 48.867188-2.628906 9.136719-4.253906 18.550781-4.902343 28.035156-.21875 3.160156-.328125 6.328125-.328125 9.496094zm0 0" fill="#75c5bf"/><path d="m301.246094 408.570312s-14.371094 40.589844-56.609375 60.164063c-42.238281-19.574219-56.609375-60.164063-56.609375-60.164063zm0 0" fill="#f4d7b9"/><path d="m188.027344 408.570312s3.03125 8.546876 10.386718 19.6875c5.90625-7.472656 12.726563-14.175781 20.519532-19.6875zm0 0" fill="#dbc1a6"/><path d="m409.308594 69.539062c-1.347656-1.382812-2.695313-2.753906-4.078125-4.101562-42.925781-42.195312-99.957031-65.4375-160.59375-65.4375s-117.667969 23.242188-160.59375 65.4375c-1.382813 1.347656-2.730469 2.71875-4.082031 4.101562l164.675781 33.933594zm0 0" fill="#495058"/><path d="m110.867188 69.539062c1.347656-1.382812 2.699218-2.753906 4.078124-4.101562 39.261719-38.589844 90.320313-61.316406 145.144532-64.917969-5.121094-.335937-10.273438-.519531-15.453125-.519531-60.636719 0-117.667969 23.242188-160.59375 65.4375-1.382813 1.347656-2.730469 2.71875-4.082031 4.101562l164.675781 33.933594 15.453125-3.1875zm0 0" fill="#3f464d"/><path d="m453.925781 136.160156c11.871094 27.421875 18.09375 57.183594 18.09375 87.894532h-454.765625c0-30.710938 6.222656-60.472657 18.089844-87.894532l209.292969-32.6875zm0 0" fill="#495058"/><path d="m260.089844 105.886719-15.453125-2.414063-209.292969 32.6875c-11.867188 27.421875-18.089844 57.183594-18.089844 87.894532h30.90625c0-30.710938 6.222656-60.472657 18.089844-87.894532zm0 0" fill="#3f464d"/><path d="m489.273438 234.503906c0 26.851563-21.765626 48.621094-48.617188 48.621094s-48.617188-21.769531-48.617188-48.621094c0-26.851562 21.765626-48.617187 48.617188-48.617187s48.617188 21.765625 48.617188 48.617187zm0 0" fill="#dbc1a6"/><path d="m350.148438 136.15625h-211.023438c-61.71875 0-86.539062 49.582031-86.6875 49.871094-2.503906 12.296875-3.824219 25.007812-3.824219 38.027344 0 36.476562 10.3125 70.578124 28.226563 99.660156h335.59375c17.914062-29.082032 28.226562-63.183594 28.226562-99.660156 0-13.019532-1.324218-25.730469-3.828125-38.027344-.144531-.289063-24.96875-49.871094-86.683593-49.871094zm0 0" fill="#f4d7b9"/><path d="m334.777344 241.90625c-4.265625 0-7.726563-3.457031-7.726563-7.726562v-17.527344c0-4.265625 3.460938-7.722656 7.726563-7.722656s7.726562 3.457031 7.726562 7.722656v17.527344c0 4.269531-3.460937 7.726562-7.726562 7.726562zm0 0" fill="#495058"/><path d="m154.496094 241.90625c-4.269532 0-7.726563-3.457031-7.726563-7.726562v-17.527344c0-4.265625 3.457031-7.722656 7.726563-7.722656 4.265625 0 7.726562 3.457031 7.726562 7.722656v17.527344c0 4.269531-3.460937 7.726562-7.726562 7.726562zm0 0" fill="#495058"/><path d="m412.433594 323.714844c-34.335938 55.761718-96.644532 93.023437-167.796875 93.023437-71.15625 0-133.460938-37.261719-167.796875-93.023437l20.265625-26.664063c12.246093-16.128906 31.335937-25.597656 51.589843-25.597656h191.882813c20.253906 0 39.339844 9.46875 51.589844 25.597656zm0 0" fill="#82dbd4"/><path d="m81.308594 154.109375c-9.933594 7.0625-18.683594 15.914063-25.394532 26.105469-.757812 1.148437-1.488281 2.316406-2.1875 3.503906-.394531.660156-1.132812 1.542969-1.289062 2.308594 0 .011718-.003906.023437-.003906.035156-1.214844-.105469-2.476563-.175781-3.816406-.175781-26.847657 0-48.617188 21.769531-48.617188 48.617187 0 26.851563 21.765625 48.617188 48.617188 48.617188 3.425781 0 6.429687-.355469 9.070312-1.03125 4.726562 14.710937 11.175781 28.667968 19.15625 41.621094h30.902344c-17.914063-29.082032-28.226563-63.179688-28.226563-99.65625 0-8.851563.609375-44.296876 1.789063-69.945313zm0 0" fill="#dbc1a6"/><path d="m453.925781 136.160156h-418.582031c10.550781-24.394531 25.558594-46.9375 44.617188-66.621094h329.347656c19.058594 19.683594 34.070312 42.226563 44.617187 66.621094zm0 0" fill="#bdc0c3"/><path d="m79.960938 69.539062c-19.058594 19.683594-34.066407 42.226563-44.617188 66.621094h30.90625c10.550781-24.394531 25.558594-46.9375 44.617188-66.621094zm0 0" fill="#b1b2b3"/><path d="m304.042969 103.472656c0 32.808594-26.597657 59.40625-59.40625 59.40625-32.808594 0-59.40625-26.597656-59.40625-59.40625 0-32.8125 26.597656-59.410156 59.40625-59.410156 32.808593 0 59.40625 26.597656 59.40625 59.410156zm0 0" fill="#ebeced"/><path d="m269.359375 103.472656c0 13.652344-11.070313 24.722656-24.722656 24.722656-13.65625 0-24.726563-11.070312-24.726563-24.722656 0-13.65625 11.070313-24.726562 24.726563-24.726562 13.652343 0 24.722656 11.070312 24.722656 24.726562zm0 0" fill="#77b8e9"/><path d="m250.101562 416.648438c.707032-.019532 1.410157-.035157 2.113282-.0625 1.277344-.046876 2.550781-.117188 3.820312-.1875 1.355469-.082032 2.707032-.171876 4.054688-.273438-64.660156-4.957031-120.519532-40.726562-152.34375-92.410156-4.746094-7.703125-8.949219-15.757813-12.578125-24.117188l-18.328125 24.117188c7.511718 12.199218 16.359375 23.511718 26.347656 33.742187 1.425781 1.460938 2.878906 2.898438 4.351562 4.316407 35.34375 34.007812 83.730469 54.964843 137.097657 54.964843 1.828125 0 3.648437-.039062 5.464843-.089843zm0 0" fill="#75c5bf"/></svg>